<?xml version="1.0" standalone="no"?>
<!DOCTYPE svg PUBLIC "-//W3C//DTD SVG 20010904//EN"
 "http://www.w3.org/TR/2001/REC-SVG-20010904/DTD/svg10.dtd">
<svg version="1.0" xmlns="http://www.w3.org/2000/svg"
 width="535.000000pt" height="535.000000pt" viewBox="0 0 535.000000 535.000000"
 preserveAspectRatio="xMidYMid meet">
<metadata>
Created by potrace 1.14, written by Peter Selinger 2001-2017
</metadata>
<g transform="translate(0.000000,535.000000) scale(0.100000,-0.100000)"
fill="#000000" stroke="none">
<path d="M1476 3181 c-19 -22 -29 -64 -66 -274 -34 -197 -59 -277 -96 -306
-37 -29 -127 -61 -219 -77 -132 -23 -456 -17 -546 11 -14 5 -17 42 -23 292 -4
158 -12 295 -17 305 -14 26 -56 23 -75 -7 -12 -19 -14 -40 -10 -97 3 -40 9
-154 12 -253 6 -202 0 -242 -39 -231 -12 4 -48 10 -79 13 -72 7 -92 -6 -84
-55 9 -59 29 -72 113 -72 l75 0 -7 -42 c-4 -24 -29 -129 -55 -234 -81 -319
-85 -387 -29 -458 23 -30 63 -35 74 -8 3 9 22 123 40 253 32 221 59 397 70
445 4 20 12 21 237 27 247 7 376 22 523 61 50 13 92 22 95 19 11 -10 1 -206
-19 -376 -28 -233 -28 -328 -1 -352 26 -23 68 -13 80 21 6 14 10 82 10 152 0
147 13 268 75 697 24 171 47 351 51 402 6 83 5 94 -15 121 -25 36 -55 45 -75
23z"/>
<path d="M4360 3184 c-190 -40 -378 -150 -417 -242 -12 -30 -12 -37 2 -58 19
-29 60 -41 80 -24 9 7 19 10 23 6 4 -4 7 -233 8 -509 1 -276 2 -510 3 -519 2
-30 69 -95 120 -117 133 -57 340 -73 481 -37 270 69 487 262 531 474 50 244
-128 413 -503 476 l-37 7 74 108 c163 237 191 368 88 416 -70 34 -334 45 -453
19z m324 -94 c86 -27 101 -48 94 -133 -10 -121 -88 -226 -228 -307 -221 -127
-313 -184 -345 -212 -20 -17 -38 -28 -41 -25 -4 4 -32 439 -34 520 0 27 75
103 126 127 114 53 308 67 428 30z m141 -575 c130 -34 244 -106 271 -172 19
-43 18 -145 -2 -218 -42 -164 -163 -290 -338 -353 -104 -37 -279 -43 -397 -13
-87 23 -147 56 -174 97 -14 22 -13 27 35 100 59 91 55 108 -19 70 l-51 -25 0
124 0 124 38 7 c62 11 112 43 197 123 97 93 134 120 188 137 58 18 181 17 252
-1z"/>
<path d="M3145 2892 c-143 -88 -234 -358 -240 -710 -2 -125 -5 -156 -19 -171
-10 -11 -17 -40 -19 -81 -4 -72 -15 -86 -106 -128 -93 -43 -178 -29 -236 40
-84 99 -145 364 -145 632 0 79 -1 84 -34 122 l-33 38 -15 -29 c-9 -17 -39 -95
-68 -175 -91 -251 -148 -372 -212 -451 -26 -32 -91 -69 -122 -69 -50 0 -97 30
-123 79 -23 44 -23 48 -23 397 0 194 -3 359 -6 368 -9 22 -50 20 -74 -4 -18
-18 -20 -33 -20 -172 0 -84 5 -255 10 -380 8 -188 13 -236 30 -282 61 -161
192 -154 366 19 75 74 157 183 198 264 10 18 21 29 25 25 5 -5 16 -38 26 -74
50 -187 112 -326 178 -397 60 -65 105 -85 209 -91 84 -5 91 -3 153 27 38 19
76 47 91 67 l27 35 23 -35 c32 -47 83 -76 133 -76 100 0 198 91 294 272 l36
67 16 -56 c69 -236 240 -357 394 -278 108 54 164 193 100 251 -27 25 -49 11
-49 -32 0 -46 -36 -82 -109 -108 -125 -45 -203 22 -251 215 -18 70 -22 127
-27 339 l-6 255 -39 80 c-54 107 -110 181 -158 205 -51 26 -134 27 -175 2z
m141 -91 c46 -34 84 -98 110 -186 23 -76 23 -259 0 -363 -67 -304 -220 -522
-319 -457 -105 68 -131 452 -50 735 40 142 146 300 201 300 10 0 36 -13 58
-29z"/>
<path d="M1568 1433 c-78 -3 -88 -6 -88 -22 0 -13 10 -21 35 -25 l35 -7 0
-278 0 -279 -35 -6 c-26 -5 -35 -12 -35 -26 0 -18 8 -20 108 -22 183 -4 242 1
298 26 146 67 152 277 8 319 l-45 13 32 23 c62 46 88 155 50 217 -38 62 -125
78 -363 67z m253 -58 c34 -18 49 -50 49 -106 0 -91 -50 -129 -170 -129 l-70 0
0 125 0 125 80 0 c54 0 91 -5 111 -15z m1 -295 c64 -18 81 -40 86 -107 8 -117
-38 -157 -183 -158 l-90 0 -3 138 -3 137 78 0 c43 0 95 -5 115 -10z"/>
<path d="M2887 1426 c-133 -50 -207 -170 -207 -335 0 -118 26 -188 93 -258 53
-55 117 -77 202 -71 187 16 301 187 274 413 -14 115 -64 196 -143 235 -57 27
-167 36 -219 16z m188 -70 c131 -100 117 -444 -20 -524 -33 -19 -51 -22 -102
-19 -56 3 -67 7 -99 37 -50 48 -72 97 -84 182 -23 158 16 278 108 336 54 33
144 28 197 -12z"/>
<path d="M3590 1426 c-220 -59 -310 -344 -172 -546 75 -110 216 -146 392 -98
l85 23 3 123 3 122 24 0 c20 0 25 5 25 25 l0 25 -125 0 -125 0 0 -25 c0 -24 3
-25 60 -25 l60 0 0 -104 0 -104 -32 -13 c-19 -8 -68 -14 -115 -14 -76 0 -84 2
-120 31 -129 103 -149 374 -36 480 63 59 175 81 263 51 32 -11 36 -16 44 -64
8 -46 12 -53 31 -53 29 0 35 17 35 90 0 66 4 62 -94 79 -76 14 -149 13 -206
-3z"/>
<path d="M2102 1413 c2 -11 18 -22 41 -27 l37 -10 0 -277 0 -277 -40 -7 c-30
-5 -40 -11 -40 -26 0 -18 10 -19 235 -19 129 0 235 1 235 3 0 1 7 40 15 87 19
107 19 100 -9 100 -21 0 -27 -9 -46 -64 -20 -60 -23 -64 -58 -70 -20 -3 -76
-6 -124 -6 l-88 0 0 279 0 278 42 9 c28 6 44 15 46 27 3 15 -8 17 -123 17
-115 0 -126 -2 -123 -17z"/>
</g>
</svg>
